<svg id="Capa_1" enable-background="new 0 0 49.652 49.652" height="512" viewBox="0 0 49.652 49.652" width="512" xmlns="http://www.w3.org/2000/svg"><g><g><g><path d="m20.894 20.686c0-1.9-1.293-1.9-1.293-1.9h-.685-4.634-.002v4.078h4.991c.863 0 1.623-.275 1.623-2.178z"/><path d="m33.221 22.864c-2.821 0-3.215 2.814-3.215 2.814h6.002c0 .002.037-2.814-2.787-2.814z"/><path d="m19.601 25.68h-5.318v4.886h4.711c.08 0 .198.004.339 0 .757-.019 2.196-.235 2.196-2.374 0-2.536-1.928-2.512-1.928-2.512z"/><path d="m24.826 0c-13.689 0-24.826 11.137-24.826 24.826 0 13.688 11.137 24.826 24.826 24.826 13.688 0 24.826-11.138 24.826-24.826 0-13.689-11.136-24.826-24.826-24.826zm4.393 16.615h7.539v2.251h-7.539zm-3.812 11.804c0 5.577-5.806 5.395-5.806 5.395h-5.318-.156-4.034v-18.275h4.034.156 5.318c2.891 0 5.172 1.597 5.172 4.867 0 3.269-2.788 3.477-2.788 3.477 3.675-.001 3.422 4.536 3.422 4.536zm14.105-.3h-9.471c0 3.396 3.217 3.182 3.217 3.182 3.036 0 2.93-1.966 2.93-1.966h3.219c0 5.218-6.254 4.859-6.254 4.859-7.503 0-7.021-6.985-7.021-6.985s-.007-7.022 7.021-7.022c7.396 0 6.357 7.932 6.359 7.932z"/></g></g></g></svg>