<svg width="50" height="50" viewBox="0 0 50 50" fill="none" xmlns="http://www.w3.org/2000/svg">
<path d="M21.0373 20.8323C21.0373 18.9189 19.7353 18.9189 19.7353 18.9189H19.0454H14.379H14.377V23.0255H19.4029C20.272 23.0255 21.0373 22.7486 21.0373 20.8323V20.8323Z" fill="black"/>
<path d="M33.4543 23.0244C30.6136 23.0244 30.2168 25.8581 30.2168 25.8581H36.2609C36.2609 25.8601 36.2981 23.0244 33.4543 23.0244Z" fill="black"/>
<path d="M19.7381 25.8613H14.3828V30.7816H19.1268C19.2074 30.7816 19.3262 30.7856 19.4682 30.7816C20.2305 30.7624 21.6796 30.5449 21.6796 28.3909C21.6796 25.8372 19.7381 25.8613 19.7381 25.8613Z" fill="black"/>
<path d="M25 0C11.2151 0 0 11.2151 0 25C0 38.7839 11.2151 50 25 50C38.7839 50 50 38.7839 50 25C50 11.2151 38.786 0 25 0ZM29.4238 16.7315H37.0156V18.9982H29.4238V16.7315ZM25.5851 28.6182C25.5851 34.2343 19.7384 34.051 19.7384 34.051H14.3831H14.226H10.1637V15.6479H14.226H14.3831H19.7384C22.6496 15.6479 24.9466 17.2561 24.9466 20.549C24.9466 23.8409 22.1391 24.0504 22.1391 24.0504C25.8398 24.0494 25.5851 28.6182 25.5851 28.6182ZM39.7889 28.3161H30.2516C30.2516 31.7359 33.4911 31.5204 33.4911 31.5204C36.5484 31.5204 36.4416 29.5406 36.4416 29.5406H39.6832C39.6832 34.7952 33.3854 34.4337 33.3854 34.4337C25.8298 34.4337 26.3152 27.3997 26.3152 27.3997C26.3152 27.3997 26.3081 20.3285 33.3854 20.3285C40.8332 20.3285 39.7869 28.3161 39.7889 28.3161V28.3161Z" fill="black"/>
</svg>
