<svg id="Layer_1" height="512" viewBox="0 0 512 512" width="512" xmlns="http://www.w3.org/2000/svg" data-name="Layer 1"><path d="m256 41c-118.741 0-215 96.259-215 215s96.259 215 215 215 215-96.259 215-215-96.259-215-215-215zm-59.426 326.424h-52v-148.565h52zm-26-170.85a26 26 0 1 1 26-26 26 26 0 0 1 -25.999 26zm196.849 170.85h-44.568v-72.388c0-17.265-1.916-39.472-25.579-39.472-24.026 0-27.7 18.806-27.7 38.221v73.639h-43.289v-148.565h41.421v20.05h.638c6.167-11.706 21.241-20.05 43.7-20.05 46.731 0 55.378 26.83 55.378 66.92z"/></svg>