<svg width="50" height="50" viewBox="0 0 50 50" fill="none" xmlns="http://www.w3.org/2000/svg">
<path d="M25 0C11.1929 0 0 11.1929 0 25C0 38.8071 11.1929 50 25 50C38.8071 50 50 38.8071 50 25C50 11.1929 38.8071 0 25 0ZM18.09 37.9563H12.0435V20.6813H18.09V37.9563ZM15.0667 18.09C14.4688 18.09 13.8843 17.9127 13.3871 17.5805C12.8899 17.2483 12.5024 16.7761 12.2736 16.2237C12.0448 15.6713 11.9849 15.0634 12.1016 14.4769C12.2182 13.8905 12.5062 13.3518 12.929 12.929C13.3518 12.5062 13.8905 12.2182 14.4769 12.1016C15.0634 11.9849 15.6713 12.0448 16.2237 12.2736C16.7761 12.5024 17.2483 12.8899 17.5805 13.3871C17.9127 13.8843 18.09 14.4688 18.09 15.0667C18.09 15.8685 17.7715 16.6375 17.2046 17.2045C16.6376 17.7714 15.8687 18.09 15.0669 18.09H15.0667ZM37.9562 37.9563H32.7738V29.5391C32.7738 27.5315 32.551 24.9493 29.7995 24.9493C27.0058 24.9493 26.5786 27.136 26.5786 29.3936V37.9563H21.545V20.6813H26.3614V23.0127H26.4356C27.1527 21.6515 28.9055 20.6813 31.517 20.6813C36.9508 20.6813 37.9563 23.801 37.9563 28.4627L37.9562 37.9563Z" fill="black"/>
</svg>
